<svg xmlns="http://www.w3.org/2000/svg" width="100" height="20" viewBox="0 0 100 20"><g fill-rule="evenodd"><path d="M31.05.073c.884.096 3.949.542 6.444 2.937 2.497 2.395 3.191 5.237 3.255 7.057.063 1.852-.79 4.822-3.76 7.344-2.97 2.522-5.908 2.49-5.908 2.49 3.475.288 6.477-1.5 8.34-3.257 1.865-1.724 4.898-6.929.949-12.229C36.42-.917 31.05.073 31.05.073M1.582 9.843c-.063-1.852.79-4.821 3.76-7.312C8.313.01 11.251.041 11.251.041 7.776-.248 4.774 1.54 2.88 3.296c-1.864 1.757-4.897 6.93-.948 12.23 3.95 5.3 9.32 4.342 9.32 4.342-.885-.096-3.95-.542-6.445-2.937-2.496-2.427-3.191-5.237-3.223-7.088"/><path d="M21.182 18.394c-8.65 0-15.15-3.78-15.15-8.426 0-4.646 6.5-8.426 15.15-8.426s15.136 3.78 15.136 8.426c0 4.646-6.486 8.426-15.136 8.426m16.231-8.426c0-4.954-7.267-8.971-16.231-8.971C12.217.997 4.95 5.014 4.95 9.968c0 4.956 7.267 8.972 16.232 8.972 8.964 0 16.231-4.016 16.231-8.972"/><path d="M15.866 13.677c-.573-.428-1.488-2.063-1.633-2.247l-1.578-2.36 1.778-2.186c.467-.496 1.187-.537 2.207-.606l.005-.396c-.423.014-2.837.205-3.322.193v.309c.407.028.47-.009.526.321-.599.714-2.478 3.122-2.478 3.122l-.389.008v-1.74c0-1.177-.093-1.45 1.077-1.547l.004-.313c-.634.014-2.618.215-3.203.201v.41c.201-.017.4-.036.64.13-.017 2.028-.116 6.048-.148 6.435-.162.299-.504.26-.744.293l.01.317c1.592-.12 2.697.133 3.294.147l.027-.399c-.975-.065-.95-.156-.957-1.164V10.25h.387s2.009 2.985 2.009 3.25c0 .41-.325.377-.544.377v.405c.62-.011 3.49.063 4.135.074l-.004-.479c-.293-.028-.855-.01-1.1-.2"/><path d="M28.505 4.821l-.015-.553c-.742.022-3.483-.117-4.17-.13l.042.546c.653.051 1.218-.012.967.881-.195.692-2.732 6.818-2.732 6.818L19.63 5.388c-.375-.84.174-.861 1.065-.861l-.022-.454c-1.03.016-4.042.172-5.358.172l.009.477c1.36 0 1.21.356 1.979 1.947l3.778 9.195 1.05-.009 3.895-9.05c.813-1.79 1.143-2.101 2.48-1.984"/><path d="M30.903 13.87c-.127-.002-.56-.07-.747-.428-.187-.357-.193-.988-.193-1.416l.007-1.796s.773-.22 1.343.065c.705.35 1.049.96 1.025 1.888-.027 1.19-.578 1.715-1.435 1.687zm-.966-6.603c0-.102 0-.45.026-.527.094-.23.528-.14.688-.1.538.124 1.277.816 1.318 1.667.023.512-.034.984-.554 1.325-.48.286-1.178.182-1.269.153l-.202-.14-.007-2.378zm2.255 2.644l.004-.067c.656-.404 1.278-.59 1.263-1.622-.021-1.35-1.65-1.992-2.946-2.046-.496-.021-.987-.04-1.478-.03-.599-.01-1.226.03-1.821.016l.024.347c.395 0 .813-.097.947.341.115.337.166 1.298.166 1.698v3.515c0 .402.048 1.454-.123 1.675-.286.36-.618.398-1.014.398l.008.318c.703-.077 1.436-.083 2.13-.098.546.015 1.076-.01 1.62 0 .715 0 1.208-.076 1.854-.472.685-.423 1.061-.968 1.11-1.821.038-.723-.341-1.316-.558-1.516-.435-.404-.732-.514-1.186-.636zm23.461-2.258c-.41-.133-.644-.246-1.009-.597a46.369 46.369 0 0 1-2.224-2.338c-.028-.038-.028-.114 0-.133.962-.918 1.318-1.221 1.701-1.524.373-.303.738-.483 1.15-.559.205-.038.298-.133.298-.2 0-.093-.065-.179-.345-.179-.365 0-.804.057-1.346.066h-.504c-.169 0-.234.114-.234.161 0 .105.093.18.27.218.318.067.356.171.28.266-.26.312-1.326 1.344-1.933 1.865-.112.104-.187.123-.224.123-.066 0-.094-.029-.103-.076-.028-.218.018-1.704.018-1.827 0-.152.075-.275.496-.38.074-.018.233-.103.233-.217 0-.104-.178-.151-.252-.151-.103 0-.56.018-1.01.018-.233 0-.803-.047-.933-.047-.14 0-.253.095-.253.17 0 .086.103.171.309.218.514.124.523.265.541.436.02.19.02.322.02 1.78 0 1.6-.02 1.97-.038 2.291-.028.398-.16.502-.654.625-.16.038-.253.095-.253.209 0 .104.16.16.271.16.169 0 .776-.056 1.215-.056.29 0 .831.038.944.038.112 0 .252-.076.252-.17 0-.076-.056-.162-.318-.219-.345-.075-.523-.113-.56-.53-.038-.483-.028-1.373-.028-1.808 0-.104.037-.18.103-.18.037 0 .13.038.233.133a73.374 73.374 0 0 1 1.925 2.045c.13.15.093.255-.13.321-.169.048-.244.124-.244.2 0 .085.094.17.225.17h.476c.355 0 1.196.066 1.635.066.168 0 .271-.114.271-.16 0-.114-.065-.162-.27-.228m6.223-5.501c-.308 0-.476.038-.831.038-.327 0-.542-.02-.747-.02-.169 0-.318.048-.318.162 0 .056.074.151.243.208.495.16.523.227.364.69-.206.617-.925 2.378-1.29 3.25-.037.065-.083.046-.121 0-.187-.248-1.29-3.164-1.346-3.495-.046-.284.066-.36.309-.426.159-.047.27-.132.27-.209 0-.094-.102-.18-.28-.18-.252 0-.55.02-.887.02-.346 0-.72-.048-1.028-.048-.15 0-.3.066-.3.16 0 .086.085.162.253.22.496.16.551.236.673.482.169.35 1.308 3.266 1.495 3.768.178.474.346 1.051.393 1.193.037.114.12.2.186.2.113 0 .234-.134.28-.247.057-.123.225-.692.43-1.202.608-1.497 1.224-2.936 1.505-3.485.205-.397.355-.606.729-.7.196-.048.327-.115.327-.218 0-.086-.103-.161-.309-.161m2.515 4.942c-.066-.303-.066-1.58-.038-1.77a.406.406 0 0 1 .122-.227 2.18 2.18 0 0 1 .44-.048c.793 0 1.494.379 1.494 1.269 0 .293-.093.559-.196.786-.093.19-.58.558-1.047.558-.168 0-.7-.227-.775-.568m-.028-4.393c.009-.095.046-.133.084-.152a.971.971 0 0 1 .299-.047c.953 0 1.317.54 1.317 1.108 0 .596-.327.87-.42.928-.13.066-.542.151-1.028.151-.122 0-.243-.038-.252-.095-.038-.19-.028-1.26 0-1.893m1.86 5.113c.541-.209 1.148-.663 1.148-1.59 0-.71-.55-1.232-1.214-1.44-.047-.02-.075-.114-.056-.123.187-.076.458-.247.532-.341.178-.19.29-.435.29-.786 0-.388-.178-.776-.504-1.032-.244-.199-.701-.379-1.384-.379-.626 0-1.205.066-1.541.066h-.477c-.233 0-.364.057-.364.152 0 .114.13.19.233.199.514.066.598.151.627.474.028.283.018 1.164.018 1.675 0 2.083-.018 2.121-.037 2.292-.047.511-.243.53-.617.615-.243.057-.355.104-.355.246 0 .104.177.161.309.161.177 0 .345-.028.663-.02.374.01.869.048 1.457.048.411 0 .888-.065 1.271-.217m11.794-.16c-.412-.134-.645-.247-1.01-.598a46.2 46.2 0 0 1-2.224-2.338c-.027-.038-.027-.114 0-.133.963-.918 1.318-1.221 1.701-1.524.374-.303.738-.483 1.15-.559.205-.038.298-.133.298-.2 0-.093-.065-.179-.345-.179-.365 0-.804.057-1.346.066h-.504c-.169 0-.234.114-.234.161 0 .105.093.18.271.218.318.067.355.171.28.266-.261.312-1.327 1.344-1.934 1.865-.112.104-.187.123-.224.123-.066 0-.093-.029-.103-.076-.028-.218.019-1.704.019-1.827 0-.152.074-.275.495-.38.075-.018.234-.103.234-.217 0-.104-.178-.151-.253-.151-.103 0-.56.018-1.009.018-.234 0-.804-.047-.934-.047-.14 0-.253.095-.253.17 0 .086.103.171.309.218.514.124.523.265.542.436.018.19.018.322.018 1.78 0 1.6-.018 1.97-.037 2.291-.028.398-.16.502-.654.625-.159.038-.252.095-.252.209 0 .104.158.16.27.16.169 0 .776-.056 1.215-.056.29 0 .832.038.944.038.112 0 .252-.076.252-.17 0-.076-.056-.162-.317-.219-.346-.075-.524-.113-.561-.53-.037-.483-.028-1.373-.028-1.808 0-.104.037-.18.103-.18.037 0 .13.038.234.133a73.374 73.374 0 0 1 1.924 2.045c.131.15.094.255-.13.321-.169.048-.243.124-.243.2 0 .085.093.17.224.17h.476c.355 0 1.196.066 1.636.066.168 0 .27-.114.27-.16 0-.114-.065-.162-.27-.228m3.187-.18c.037-.028.084.028.084.038.01.123.019.369.028.435.01.067.065.162.103.162.084 0 .252-.03.401-.067a6.73 6.73 0 0 1 .767-.132c.056-.01.159-.095.159-.256 0-.038-.057-.16-.075-.16-.094.008-.411.055-.477.055-.019 0-.14-.028-.149-.359-.019-.417-.01-2.452-.01-2.86 0-.104-.065-.227-.102-.227-.066 0-.514.029-.664.029-.159.009-.29 0-.448 0-.121 0-.234.094-.234.151 0 .086.094.161.224.209.112.037.215.084.309.123.065.018.14.189.14.293 0 .455 0 1.61-.037 1.922a.667.667 0 0 1-.253.445 1.424 1.424 0 0 1-.682.208c-.121 0-.346-.028-.495-.123-.122-.113-.224-.217-.234-.729-.009-.662-.009-1.837-.009-2.244 0-.2-.028-.303-.093-.303-.066 0-.72.048-.926.048-.037 0-.29.028-.29.16 0 .095.094.161.197.218.271.142.355.332.355.417v2.29a.87.87 0 0 0 .215.55c.13.152.44.323.738.323.58 0 1.01-.284 1.458-.616m6.037.114c-.169-.086-.234-.17-.244-.446-.018-.426-.018-.956-.027-1.42-.01-.653-.131-1.041-.28-1.259-.14-.208-.384-.445-.86-.445-.59 0-1.038.284-1.328.483-.028.019-.074.019-.065-.028.01-.095.019-.37.019-.417 0-.076-.13-.114-.159-.114-.018 0-.13.038-.243.095-.187.094-.43.18-.607.265-.084.038-.169.17-.169.237 0 .019.02.056.131.142.234.142.327.246.327.398 0 .965-.028 1.676-.056 2.13-.009.209-.065.322-.476.454-.094.029-.206.105-.206.2 0 .094.103.141.271.141.15 0 .449-.028.738-.028.225 0 .505.028.813.028.169 0 .262-.076.262-.151 0-.076-.075-.161-.243-.228-.373-.141-.365-.255-.365-.398V5.03c0-.113.094-.218.113-.236.178-.124.448-.21.803-.21.384 0 .57.133.664.257.093.123.177.407.177 1.117 0 .417 0 .824-.009 1.288-.01.237-.075.321-.308.407-.16.067-.206.142-.206.199 0 .123.13.151.252.151.112 0 .318-.028.59-.028.28 0 .578.028.7.028.121 0 .27-.057.27-.151 0-.085-.065-.18-.28-.265m2.571.085c-.449-.17-.477-.18-.505-.568-.018-.227-.018-1.742-.018-2.31 0-.881.028-2.084.028-2.832 0-.265-.038-.407-.112-.407a.808.808 0 0 0-.197.038c-.196.057-.541.18-.84.303-.066.029-.179.094-.179.17 0 .076.038.133.225.208.159.067.28.142.3.256.027.152.027 1.023.027 2.301 0 1.629-.019 2.216-.037 2.368-.029.189-.037.312-.468.473-.168.056-.233.133-.233.227 0 .085.122.114.271.114.215 0 .411-.038.775-.038.243 0 .627.029.888.029.206 0 .27-.057.27-.133 0-.057-.046-.143-.195-.2m4.775.238c.056-.01.159-.095.159-.256 0-.038-.057-.16-.075-.16-.093.008-.411.055-.477.055-.018 0-.14-.028-.149-.359-.019-.417-.01-2.452-.01-2.86 0-.104-.065-.227-.102-.227-.066 0-.514.028-.664.028-.159.01-.29 0-.448 0-.122 0-.234.095-.234.152 0 .085.094.16.224.208.112.038.216.085.31.124.064.018.14.19.14.293 0 .455 0 1.61-.039 1.922a.663.663 0 0 1-.252.445 1.419 1.419 0 0 1-.682.208c-.121 0-.345-.028-.495-.123-.122-.113-.224-.217-.234-.73-.009-.662-.009-1.836-.009-2.242 0-.2-.028-.304-.093-.304-.066 0-.72.047-.925.047-.038 0-.29.029-.29.161 0 .096.093.162.196.218.271.142.355.332.355.417v2.29a.87.87 0 0 0 .215.55c.13.152.44.323.738.323.58 0 1.01-.284 1.458-.616.037-.028.084.028.084.038.01.123.019.37.028.436.01.066.065.16.103.16.084 0 .252-.028.402-.066a6.71 6.71 0 0 1 .766-.132m.683.095c.149 0 .448-.03.738-.03.224 0 .504.03.813.03.168 0 .261-.077.261-.152 0-.076-.075-.16-.243-.228-.373-.142-.364-.255-.364-.398V5.03c0-.114.093-.218.112-.237.178-.123.448-.208.804-.208.383 0 .57.132.663.256.094.123.178.407.178 1.117 0 .417 0 .824-.01 1.288-.01.236-.074.322-.308.407-.159.066-.206.142-.206.199 0 .123.131.152.253.152.112 0 .317-.03.589-.03.28 0 .579.03.7.03.122 0 .271-.057.271-.152 0-.085-.065-.18-.28-.265-.168-.086-.234-.17-.243-.445-.019-.426-.019-.957-.028-1.42-.01-.654-.131-1.042-.28-1.26-.14-.208-.384-.445-.86-.445-.589 0-1.037.284-1.327.483-.028.019-.075.019-.065-.028.009-.095.018-.37.018-.417 0-.076-.13-.114-.158-.114-.02 0-.131.038-.244.095-.187.094-.43.18-.607.265-.084.038-.168.17-.168.236 0 .02.018.057.13.143.234.142.328.246.328.397 0 .967-.028 1.676-.056 2.131-.01.208-.066.322-.477.454-.094.03-.206.105-.206.2 0 .094.104.142.272.142M54.87 17.748h-1.006c-.304 0-.359-.049-.359-.286v-.698c.71-.224 1.496-.524 2.067-.873l-.516-.468c-.365.273-.958.559-1.55.775v-1.04h-.648v2.31c0 .678.186.873.93.873h1.123c.627 0 .806-.258.889-1.194-.18-.048-.448-.146-.593-.25-.034.725-.068.851-.337.851m-4.024-4.377h3.548v-.531h-3.548v.53zm0 1.047h3.548v-.552h-3.548v.552zm-.648.516h4.871v-2.618H50.2v2.618zm.758 2.66v-1.152h1.564v-.586h-1.564v-.677h-.668v2.199c0 .272-.213.384-.365.44.103.133.2.419.234.58.186-.091.468-.154 2.515-.476a3.24 3.24 0 0 1-.069-.558l-1.647.23zM65.5 16.498h.786v-.816H65.5v.816zm1.378 0h.806v-.816h-.806v.816zm1.399 0h.82v-.816h-.82v.816zm-3.403 2.004h.626V17.05h.786v1.39h.592v-1.39h.806v1.39h.593v-1.39h.82v.789c0 .07-.02.083-.09.083a4.428 4.428 0 0 1-.461 0c.082.161.165.406.179.573.358 0 .606-.007.785-.112.173-.09.214-.258.214-.538V15.13h-4.85v3.372zm3.816-4.51h-2.604a9.48 9.48 0 0 0 1.227-1.11c.482.432.936.796 1.377 1.11m-.868-1.718l-.482-.272c-.744.999-2.053 1.899-3.245 2.416.165.153.33.384.434.552.42-.21.854-.483 1.275-.775v.363h2.949v-.524c.461.327.902.6 1.343.851a1.88 1.88 0 0 1 .448-.544 12.824 12.824 0 0 1-2.86-1.885c.049-.056.09-.119.138-.182m12.835 3.345h.648v-.6h-.648v.6zm-.427.37h1.523v-1.341H80.23v1.34z"/><path d="M83.406 16.82c-.179-.036-.33-.224-.448-.525a5.316 5.316 0 0 0 .737-1.654l-.51-.105c-.103.405-.24.776-.426 1.11-.083-.39-.152-.865-.2-1.368h1.364v-.482h-.42l.303-.32c-.152-.154-.455-.343-.703-.461l-.296.3c.248.126.544.32.682.481h-.971a20.165 20.165 0 0 1-.035-.67h-.53l.041.67h-1.978v.482h2.02c.068.74.171 1.417.337 1.948a3.081 3.081 0 0 1-.414.44l-.013-.433c-.744.119-1.496.237-1.998.307l.068.489c.552-.098 1.248-.23 1.923-.343-.165.14-.345.266-.53.378.102.09.289.3.357.398.304-.196.58-.433.82-.698.166.307.372.51.627.58.4.16.69-.113.786-.909a2.32 2.32 0 0 1-.407-.307c-.041.433-.103.719-.186.691"/><path d="M79.7 17.622h4.506V12.98H79.7v4.642zm-.607.893h.607v-.306h4.506v.306h.633v-6.122h-5.746v6.122zm19.539-4.544a4.454 4.454 0 0 1-.352-.852h.8a4.63 4.63 0 0 1-.448.852zm-1.847.852c.4-.51.73-1.145.924-1.914.186.748.447 1.404.826 1.914h-1.75zm2.632-2.186l-.103.036h-1.158a8.48 8.48 0 0 1-.096-.455l-.483.091c.021.126.049.245.07.364l-.214-.084-.083.02h-.634a4.06 4.06 0 0 0 .152-.405l-.476-.112c-.213.706-.592 1.362-1.074 1.788.124.077.317.244.4.328.302-.307.585-.719.819-1.18h.64a4.863 4.863 0 0 1-.199.53 4.365 4.365 0 0 0-.406-.25l-.214.293c.145.084.317.195.455.307-.076.133-.152.272-.241.391a4.794 4.794 0 0 0-.455-.328l-.248.272c.151.105.323.238.468.363a2.83 2.83 0 0 1-.778.657c.117.097.248.272.324.39.254-.167.51-.384.737-.635v.328h2.136v-.251c.213.237.454.426.73.586a2.04 2.04 0 0 1 .358-.467 2.6 2.6 0 0 1-.93-.79 5.86 5.86 0 0 0 .861-1.57l-.358-.217zm0 3.275h-3.452v.53h1.413v1.397c0 .07-.014.09-.104.097a6.458 6.458 0 0 1-.62-.006c.076.153.165.39.193.558.393 0 .683-.007.875-.098.2-.09.248-.251.248-.537v-1.411h1.447v-.53z"/><path d="M98.46 16.973c.275.37.633.893.798 1.201l.504-.308c-.187-.3-.559-.795-.828-1.165l-.475.272zm-2.226-.23a5.445 5.445 0 0 1-.73 1.13c.144.07.372.216.482.315.255-.328.572-.838.792-1.27l-.544-.176zm-1.15-2.346a61.29 61.29 0 0 0 .612-1.816l-.413-.237-.09.021h-1.467v6.11h.552V12.95h.709a24.604 24.604 0 0 1-.448 1.509c.427.524.517.991.517 1.34 0 .21-.027.384-.124.454a.34.34 0 0 1-.186.063c-.096.007-.207 0-.338-.008.083.154.131.406.138.56.152.006.317.006.434-.008a.872.872 0 0 0 .358-.14c.193-.146.276-.446.276-.858 0-.405-.103-.908-.53-1.466"/></g></svg>