<svg xmlns="http://www.w3.org/2000/svg" width="200" height="40" viewBox="0 0 200 40"><g fill="none" fill-rule="evenodd"><path fill="#000" d="M100.653 4.328c.262 0 1.397.102 1.862.102.894 0 1.808-.042 2.012-.042.149 0 .503.103.503.33 0 .247-.316.432-.465.474-.839.225-.988.493-.988.822 0 .268-.093 3.496-.037 3.97.019.102.074.165.204.165.075 0 .224-.042.449-.268 1.21-1.13 3.333-3.374 3.855-4.052.149-.206.075-.432-.56-.576-.354-.083-.54-.247-.54-.473 0-.103.13-.35.466-.35h1.007c1.08-.02 1.955-.144 2.68-.144.56 0 .69.185.69.39 0 .145-.186.35-.595.433-.82.164-1.547.556-2.292 1.214-.763.657-1.471 1.317-3.39 3.312-.056.04-.056.206 0 .287 1.564 1.954 3.67 4.28 4.433 5.081.727.762 1.193 1.009 2.013 1.296.41.145.54.247.54.494 0 .102-.205.35-.54.35-.876 0-2.553-.144-3.26-.144h-.95c-.262 0-.448-.186-.448-.37 0-.165.15-.33.484-.432.448-.144.522-.372.262-.7-.69-.864-2.945-3.456-3.838-4.444-.204-.205-.39-.287-.466-.287-.13 0-.204.164-.204.39 0 .947-.02 2.88.056 3.93.074.905.428.987 1.118 1.151.52.125.633.309.633.473 0 .206-.28.371-.503.371-.223 0-1.304-.082-1.881-.082-.876 0-2.086.123-2.423.123-.222 0-.54-.123-.54-.35 0-.246.187-.37.504-.452.987-.267 1.247-.495 1.304-1.358.036-.7.075-1.5.075-4.979 0-3.167 0-3.454-.04-3.866-.035-.371-.054-.68-1.078-.947-.41-.103-.615-.287-.615-.473 0-.164.224-.37.503-.37zm12.444-.042c.613 0 1.36.1 2.048.1.671 0 1.268-.04 1.77-.04.354 0 .559.182.559.384 0 .162-.223.344-.54.445-.485.141-.708.302-.615.909.112.707 2.31 6.935 2.683 7.46.074.101.167.142.24 0 .728-1.86 2.162-5.619 2.572-6.934.317-.99.261-1.133-.726-1.475-.335-.123-.485-.325-.485-.446 0-.242.3-.344.634-.344.41 0 .838.041 1.49.041.707 0 1.044-.08 1.658-.08.41 0 .615.162.615.343 0 .223-.261.363-.653.465-.745.202-1.043.647-1.453 1.496-.558 1.173-1.787 4.245-2.999 7.439-.41 1.093-.745 2.305-.856 2.569-.094.241-.336.525-.56.525-.13 0-.296-.182-.371-.425-.094-.303-.43-1.537-.784-2.547-.371-1.072-2.644-7.297-2.98-8.047-.242-.524-.354-.686-1.34-1.03-.335-.121-.504-.284-.504-.465 0-.202.3-.343.597-.343zm16.362.824c-.225 0-.525.062-.6.104-.075.04-.15.122-.168.328-.056 1.381-.075 3.71 0 4.122.018.124.261.207.505.207.973 0 1.798-.187 2.06-.33.188-.125.843-.722.843-2.02 0-1.236-.73-2.41-2.64-2.41zm.337 5.543c-.282 0-.788.062-.881.103-.037.02-.188.206-.244.495-.055.411-.055 3.193.075 3.853.15.74 1.218 1.236 1.554 1.236.939 0 1.912-.804 2.1-1.216.206-.494.392-1.071.392-1.71 0-1.937-1.405-2.76-2.996-2.76zm3.446-1.587c-.15.206-.693.578-1.068.742-.037.02.02.227.112.268 1.33.454 2.436 1.586 2.436 3.131 0 2.02-1.218 3.009-2.304 3.463-.767.33-1.724.473-2.548.473-1.18 0-2.173-.081-2.922-.103-.637-.02-.974.041-1.33.041-.262 0-.618-.123-.618-.35 0-.31.225-.413.71-.536.751-.185 1.145-.226 1.238-1.34.038-.37.074-.452.074-4.984 0-1.114.02-3.03-.036-3.649-.057-.7-.225-.886-1.255-1.029-.207-.021-.468-.185-.468-.433 0-.207.261-.33.73-.33h.955c.675 0 1.836-.144 3.09-.144 1.367 0 2.286.391 2.774.824.655.557 1.011 1.401 1.011 2.246 0 .762-.225 1.298-.581 1.71zm13.243-4.738c.26 0 1.398.102 1.863.102.895 0 1.806-.042 2.012-.042.149 0 .503.103.503.33 0 .247-.316.432-.465.474-.839.225-.988.493-.988.822 0 .268-.093 3.496-.037 3.97.019.102.074.165.205.165.075 0 .224-.042.447-.268 1.211-1.13 3.335-3.374 3.857-4.052.149-.206.075-.432-.56-.576-.354-.083-.54-.247-.54-.473 0-.103.13-.35.465-.35h1.007c1.08-.02 1.957-.144 2.682-.144.56 0 .69.185.69.39 0 .145-.186.35-.596.433-.82.164-1.548.556-2.292 1.214-.764.657-1.471 1.317-3.39 3.312-.056.04-.056.206 0 .287 1.564 1.954 3.669 4.28 4.434 5.081.726.762 1.192 1.009 2.01 1.296.411.145.541.247.541.494 0 .102-.204.35-.54.35-.876 0-2.552-.144-3.26-.144h-.95c-.261 0-.447-.186-.447-.37 0-.165.149-.33.485-.432.446-.144.521-.372.26-.7-.69-.864-2.943-3.456-3.838-4.444-.205-.205-.39-.287-.465-.287-.131 0-.205.164-.205.39 0 .947-.02 2.88.055 3.93.075.905.43.987 1.12 1.151.52.125.632.309.632.473 0 .206-.28.371-.503.371-.224 0-1.304-.082-1.882-.082-.875 0-2.086.123-2.421.123-.224 0-.54-.123-.54-.35 0-.246.185-.37.502-.452.987-.267 1.247-.495 1.304-1.358.038-.7.075-1.5.075-4.979 0-3.167 0-3.454-.037-3.866-.038-.371-.056-.68-1.08-.947-.41-.103-.615-.287-.615-.473 0-.164.223-.37.502-.37zm15.507 11.04c.07-.061.416-.383.468-.948.07-.666.07-3.125.07-4.094 0-.223-.14-.585-.26-.626-.174-.08-.364-.18-.571-.261-.242-.102-.416-.262-.416-.444 0-.121.208-.323.433-.323.294 0 .536.02.83 0 .277 0 1.106-.06 1.228-.06.07 0 .19.262.19.483 0 .868-.018 5.204.018 6.091.016.706.24.767.275.767.122 0 .71-.1.882-.121.035 0 .139.262.139.342 0 .344-.191.525-.294.545-.432.06-1.108.182-1.419.282-.276.082-.587.142-.742.142-.07 0-.173-.202-.19-.343-.018-.142-.035-.666-.052-.928 0-.02-.087-.141-.157-.081-.828.706-1.624 1.31-2.696 1.31-.553 0-1.124-.362-1.366-.684-.174-.202-.398-.686-.398-1.17v-4.882c0-.18-.155-.583-.657-.886-.19-.121-.363-.262-.363-.464 0-.283.467-.343.536-.343.38 0 1.59-.1 1.712-.1.12 0 .173.22.173.645 0 .866 0 3.368.017 4.78.017 1.088.208 1.31.432 1.553.277.202.693.262.917.262.519 0 1.09-.303 1.261-.444zm5.5-6.466c.329-.18.776-.36 1.12-.56.207-.12.414-.2.447-.2.052 0 .293.08.293.241 0 .1-.016.679-.034.879-.018.1.07.1.12.06.535-.42 1.36-1.02 2.445-1.02.878 0 1.325.5 1.584.94.276.46.5 1.278.517 2.657.018.979.018 2.097.051 2.997.018.58.138.76.448.94.397.18.517.379.517.558 0 .2-.277.32-.499.32-.225 0-.775-.06-1.293-.06-.498 0-.877.06-1.084.06-.223 0-.464-.06-.464-.32 0-.12.086-.278.379-.42.43-.18.55-.359.568-.859.017-.978.017-1.837.017-2.716 0-1.499-.155-2.098-.327-2.358-.173-.26-.517-.539-1.223-.539-.654 0-1.154.18-1.48.439-.035.04-.207.26-.207.5v4.635c0 .3-.018.54.67.839.31.14.449.32.449.48 0 .158-.172.32-.482.32-.568 0-1.085-.061-1.498-.061-.534 0-1.084.06-1.36.06-.31 0-.5-.1-.5-.3 0-.199.208-.36.38-.42.757-.279.86-.519.877-.958.051-.96.104-2.458.104-4.495 0-.32-.173-.54-.604-.84-.205-.18-.24-.259-.24-.3 0-.14.155-.418.31-.5zm9.586-4.367c.564-.245 1.217-.49 1.588-.603a1.43 1.43 0 0 1 .37-.075c.142 0 .213.283.213.81 0 1.49-.053 3.884-.053 5.637 0 1.132 0 4.148.036 4.6.053.773.106.792.953 1.132.282.113.37.283.37.395 0 .151-.122.265-.511.265-.495 0-1.218-.058-1.678-.058-.688 0-1.06.076-1.466.076-.282 0-.511-.056-.511-.226 0-.188.123-.34.44-.452.813-.321.831-.566.884-.943.035-.302.07-1.47.07-4.713 0-2.545 0-4.28-.051-4.581-.037-.227-.266-.378-.566-.51-.353-.15-.425-.264-.425-.415 0-.15.213-.282.337-.34zm9.914 10.833a1.46 1.46 0 0 0 .468-.948c.069-.666.069-3.125.069-4.094 0-.223-.139-.585-.26-.626-.172-.08-.362-.18-.57-.261-.242-.102-.415-.262-.415-.444 0-.121.206-.323.433-.323.293 0 .535.02.829 0 .276 0 1.106-.06 1.227-.06.07 0 .19.262.19.483 0 .868-.016 5.204.018 6.091.018.706.242.767.276.767.122 0 .709-.1.882-.121.035 0 .139.262.139.342 0 .344-.19.525-.294.545-.432.06-1.107.182-1.418.282-.276.082-.587.142-.744.142-.07 0-.172-.202-.19-.343-.017-.142-.034-.666-.052-.928 0-.02-.086-.141-.155-.081-.83.706-1.625 1.31-2.697 1.31-.553 0-1.124-.362-1.366-.684-.173-.202-.398-.686-.398-1.17v-4.882c0-.18-.155-.583-.656-.886-.19-.121-.364-.262-.364-.464 0-.283.468-.343.537-.343.38 0 1.59-.1 1.712-.1.12 0 .172.22.172.645 0 .866 0 3.368.018 4.78.016 1.088.207 1.31.432 1.553.276.202.692.262.915.262.52 0 1.09-.303 1.262-.444zm5.5-6.466c.328-.18.775-.36 1.12-.56.207-.12.413-.2.448-.2.052 0 .293.08.293.241 0 .1-.018.679-.035.879-.017.1.069.1.12.06.534-.42 1.36-1.02 2.446-1.02.879 0 1.326.5 1.585.94.274.46.5 1.278.516 2.657.016.979.016 2.097.05 2.997.018.58.139.76.45.94.395.18.515.379.515.558 0 .2-.275.32-.499.32-.223 0-.775-.06-1.29-.06-.5 0-.879.06-1.086.06-.224 0-.466-.06-.466-.32 0-.12.087-.278.38-.42.43-.18.55-.359.567-.859.019-.978.019-1.837.019-2.716 0-1.499-.156-2.098-.328-2.358-.172-.26-.516-.539-1.222-.539-.654 0-1.154.18-1.481.439-.034.04-.207.26-.207.5v4.635c0 .3-.017.54.672.839.31.14.448.32.448.48 0 .158-.172.32-.483.32-.569 0-1.085-.061-1.498-.061-.533 0-1.085.06-1.36.06-.31 0-.5-.1-.5-.3 0-.199.207-.36.38-.42.756-.279.86-.519.878-.958.051-.96.102-2.458.102-4.495 0-.32-.171-.54-.602-.84-.206-.18-.241-.259-.241-.3 0-.14.155-.418.31-.5zm-81.97 27.44c.571 0 .644-.267.718-1.802.308.222.879.428 1.26.531-.176 1.979-.557 2.524-1.89 2.524h-2.389c-1.582 0-1.979-.413-1.979-1.844v-4.887h1.379v2.2c1.26-.457 2.52-1.062 3.296-1.639l1.1.99c-1.217.738-2.888 1.372-4.396 1.845v1.476c0 .5.116.605.762.605h2.14zm-8.558-7.041h7.547v-1.167h-7.547v1.167zm0-2.216h7.547v-1.12h-7.547v1.12zm-1.378 3.307v-5.535h10.36v5.535h-10.36zm5.115 5.137c.014.369.072.9.146 1.18-4.352.679-4.954.812-5.349 1.005-.073-.34-.279-.945-.498-1.225.322-.119.775-.355.775-.93v-4.65h1.423v1.431h3.327v1.24h-3.327v2.436l3.503-.487zm31.729-2.28h1.653v-1.68h-1.653v1.68zm-2.819 0h1.625v-1.68h-1.625v1.68zm3.652-5.155a31.818 31.818 0 0 1-2.777-2.285 19.098 19.098 0 0 1-2.472 2.285h5.25zm-6.43 5.155h1.583v-1.68h-1.582v1.68zm8.514 2.772c0 .574-.083.919-.43 1.106-.362.215-.861.229-1.584.229-.028-.344-.194-.846-.361-1.177.43.015.806.015.93 0 .139 0 .18-.028.18-.173v-1.623h-1.652v2.859h-1.194v-2.86h-1.625v2.86h-1.195v-2.86h-1.582v2.99h-1.264v-6.938h9.777v5.587zm-3.833-11.46c-.098.128-.182.258-.278.373 1.916 1.723 3.902 2.944 5.764 3.878a3.845 3.845 0 0 0-.904 1.12 31.74 31.74 0 0 1-2.707-1.752v1.077h-5.945v-.746c-.847.602-1.723 1.163-2.57 1.593-.207-.344-.54-.819-.874-1.134 2.402-1.063 5.042-2.915 6.541-4.97l.973.56zm24.888 7.07h1.41V30.37h-1.41v1.261zm-.929.777v-2.816h3.313v2.816h-3.313zm7.54-2.83a10.967 10.967 0 0 1-1.605 3.474c.255.63.586 1.027.975 1.1.18.058.315-.543.406-1.451a5 5 0 0 0 .883.645c-.21 1.671-.84 2.243-1.709 1.906-.555-.147-1.004-.573-1.363-1.217a8.96 8.96 0 0 1-1.784 1.466 6.668 6.668 0 0 0-.78-.836 8.757 8.757 0 0 0 1.154-.792c-1.468.235-2.982.513-4.182.72l-.149-1.028a251.4 251.4 0 0 0 4.347-.645l.03.91c.33-.279.629-.587.899-.923-.36-1.115-.585-2.537-.735-4.09h-4.392v-1.013h4.303l-.091-1.407h1.154c.016.47.045.952.076 1.407h2.113c-.3-.338-.944-.746-1.484-1.012l.644-.629c.54.248 1.2.644 1.529.967l-.66.674h.914v1.013h-2.967c.105 1.055.255 2.051.434 2.872.405-.703.706-1.48.93-2.33l1.11.22zm-8.693 6.26h9.801v-9.749h-9.801v9.749zm11.18-10.98v12.856h-1.379v-.645h-9.801v.645H158V24.857h12.5zm28.143 9.263c.548.744 1.31 1.741 1.689 2.345l-1.028.617c-.337-.617-1.07-1.67-1.633-2.414l.972-.548zm-1.338-7.2c.197.617.423 1.193.718 1.713a9.264 9.264 0 0 0 .916-1.713h-1.634zm.521 3.425c-.774-1.024-1.31-2.344-1.689-3.847-.395 1.545-1.07 2.823-1.886 3.847h3.575zm-1.154 3.256v2.836c0 .575-.1.898-.508 1.08-.393.183-.985.196-1.786.196-.058-.336-.24-.813-.395-1.121a13.69 13.69 0 0 0 1.267.013c.183-.013.21-.056.21-.197v-2.807h-2.885v-1.067h7.053v1.067h-2.956zm-2.436.955c-.45.87-1.097 1.894-1.619 2.554a5.317 5.317 0 0 0-.985-.631c.55-.618 1.112-1.502 1.492-2.275l1.112.352zm6.124-8.169c-.422 1.137-1.084 2.33-1.76 3.158.521.673 1.14 1.221 1.9 1.586-.239.21-.562.631-.732.94a6.086 6.086 0 0 1-1.491-1.179v.505h-4.365v-.66a7.96 7.96 0 0 1-1.505 1.279c-.155-.24-.424-.59-.663-.788a5.742 5.742 0 0 0 1.59-1.318 11.386 11.386 0 0 0-.956-.73l.507-.547c.296.182.647.435.928.66.184-.24.339-.52.493-.786a7.57 7.57 0 0 0-.929-.62l.436-.588c.269.14.565.323.831.505.155-.35.297-.701.408-1.066h-1.309c-.478.926-1.054 1.754-1.675 2.371a5.683 5.683 0 0 0-.817-.66c.986-.856 1.76-2.175 2.197-3.593l.97.225c-.083.281-.196.547-.309.815h1.295l.17-.042.437.167c-.043-.238-.1-.477-.143-.73l.986-.182c.058.309.127.618.198.912h2.365l.211-.07.732.436zm-8.334-.548c-.38 1.151-.845 2.54-1.253 3.65.873 1.122 1.084 2.133 1.084 2.947 0 .828-.169 1.432-.563 1.727-.197.14-.436.225-.731.28-.24.03-.578.03-.888.014-.014-.308-.113-.814-.282-1.122.268.013.493.028.69.013a.672.672 0 0 0 .38-.126c.198-.14.253-.49.253-.912 0-.702-.182-1.642-1.055-2.695.324-.927.661-2.106.915-3.033h-1.45v11.103H188v-12.28h2.998l.183-.043.845.477z"/><path fill="#F2973A" d="M3.16 19.813c-.126-3.704 1.576-9.643 7.503-14.625C16.59.143 22.453.208 22.453.208c-6.935-.575-12.925 3-16.708 6.513-3.72 3.513-9.773 13.858-1.892 24.46 7.882 10.6 18.6 8.684 18.6 8.684-1.765-.192-7.88-1.086-12.862-5.875C4.61 29.136 3.222 23.517 3.16 19.813M80.565 8.956C72.683-1.71 61.965.27 61.965.27c1.765.191 7.881 1.086 12.863 5.876 4.98 4.789 6.367 10.473 6.493 14.113.127 3.703-1.576 9.642-7.503 14.688-5.927 5.045-11.79 4.98-11.79 4.98 6.935.576 12.925-3 16.645-6.513 3.72-3.449 9.773-13.858 1.892-24.46"/><path fill="#005FA2" d="M42.361 2.857C60.387 2.857 75 10.852 75 20.714c0 9.863-14.613 17.857-32.639 17.857-18.026 0-32.639-7.994-32.639-17.857 0-9.862 14.613-17.857 32.64-17.857zM21.4 20.265h.77s4.005 6.038 4.005 6.576c0 .83-.647.762-1.084.762v.82c1.235-.022 6.955.126 8.242.148l-.007-.968c-.586-.056-1.704-.02-2.191-.403-1.143-.865-2.965-4.174-3.255-4.547l-3.147-4.772 3.545-4.424c.931-1.003 2.365-1.086 4.398-1.225l.012-.803c-.844.03-5.657.416-6.621.39v.626c.81.056.935-.017 1.047.65-1.194 1.445-4.94 6.317-4.94 6.317l-.774.015v-3.521c0-2.38-.186-2.934 2.147-3.13l.007-.633c-1.263.03-5.217.436-6.385.408v.827c.402-.032.798-.07 1.278.265-.035 4.104-.234 12.236-.296 13.02-.324.603-1.005.527-1.484.593l.019.641c3.173-.243 5.376.268 6.567.298l.054-.808c-1.944-.131-1.893-.317-1.907-2.355v-4.767zm20.692 12.592l2.102-.018 7.79-18.641c1.627-3.685 2.287-4.325 4.96-4.085l-.03-1.139c-1.485.045-6.967-.242-8.343-.269l.085 1.125c1.306.105 2.435-.023 1.934 1.815-.39 1.426-5.466 14.043-5.466 14.043s-5.716-13.879-5.936-14.407c-.749-1.73.348-1.774 2.132-1.774l-.045-.936c-2.059.035-8.085.356-10.72.356l.018.982c2.721 0 2.423.731 3.96 4.01l7.559 18.938zm18.574-8.877l.013-3.397s1.438-.412 2.496.125c1.312.663 1.95 1.813 1.905 3.568-.05 2.249-1.073 3.243-2.666 3.19-.237-.004-1.041-.132-1.389-.809-.348-.674-.36-1.868-.36-2.677zm-.035-4.501l-.013-4.497c0-.193 0-.852.048-.996.176-.436.981-.264 1.278-.189 1 .234 2.374 1.543 2.451 3.152.043.969-.064 1.86-1.03 2.504-.893.542-2.19.345-2.359.29l-.375-.264zm-2.962-2.074v6.645c0 .76.09 2.748-.227 3.167-.533.68-1.15.752-1.886.752l.014.602c1.308-.146 2.671-.158 3.96-.186 1.015.028 2-.02 3.011 0 1.33 0 2.246-.144 3.446-.892 1.273-.8 1.972-1.831 2.064-3.443.07-1.366-.634-2.488-1.036-2.866-.81-.764-1.361-.972-2.206-1.202l.007-.127c1.22-.765 2.376-1.116 2.349-3.068-.04-2.553-3.067-3.766-5.477-3.868a42.076 42.076 0 0 0-2.748-.056c-1.111-.02-2.278.056-3.384.031l.045.656c.735 0 1.512-.184 1.76.645.213.637.308 2.453.308 3.21z"/></g></svg>