<svg xmlns="http://www.w3.org/2000/svg" width="160" height="33" viewBox="0 0 160 33"><g fill="#FEFEFE" fill-rule="evenodd"><path d="M49.679.12c1.415.158 6.319.895 10.312 4.847 3.994 3.952 5.106 8.64 5.207 11.643.1 3.057-1.264 7.956-6.015 12.118-4.752 4.162-9.453 4.11-9.453 4.11 5.56.473 10.362-2.477 13.344-5.375 2.983-2.845 7.836-11.433 1.517-20.178C58.273-1.513 49.68.12 49.68.12M2.533 16.242c-.1-3.056 1.264-7.956 6.016-12.065C13.301.015 18.002.067 18.002.067 12.44-.408 7.639 2.544 4.606 5.44 1.624 8.339-3.23 16.874 3.089 25.62c6.32 8.745 14.913 7.164 14.913 7.164-1.416-.158-6.319-.895-10.313-4.847-3.993-4.003-5.105-8.64-5.156-11.695"/><path d="M33.89 30.35c-13.84 0-24.24-6.236-24.24-13.902 0-7.666 10.4-13.903 24.24-13.903 13.841 0 24.218 6.237 24.218 13.903S47.731 30.35 33.891 30.35m25.97-13.903c0-8.175-11.627-14.803-25.97-14.803-14.343 0-25.97 6.628-25.97 14.803 0 8.176 11.627 14.803 25.97 14.803 14.343 0 25.97-6.627 25.97-14.803"/><path d="M25.385 22.567c-.917-.706-2.38-3.404-2.612-3.708l-2.526-3.892 2.846-3.608c.747-.819 1.898-.886 3.53-1l.01-.654c-.678.023-4.54.339-5.315.318v.51c.65.046.75-.014.84.53-.958 1.178-3.964 5.152-3.964 5.152l-.622.012v-2.872c0-1.94-.15-2.391 1.723-2.551l.006-.517c-1.014.024-4.188.355-5.125.333v.674c.322-.026.64-.058 1.025.216-.028 3.347-.187 9.98-.237 10.618-.26.493-.807.43-1.191.484l.015.523c2.547-.198 4.316.219 5.271.243l.044-.659c-1.561-.107-1.52-.258-1.531-1.92V16.91h.619s3.214 4.925 3.214 5.363c0 .677-.52.621-.87.621v.67c.99-.02 5.583.102 6.616.12l-.006-.79c-.47-.046-1.369-.016-1.76-.328"/><path d="M45.608 7.955l-.025-.912c-1.187.036-5.571-.194-6.672-.216l.068.901c1.045.085 1.949-.019 1.548 1.455-.313 1.141-4.372 11.25-4.372 11.25S31.583 9.312 31.408 8.89c-.6-1.387.278-1.422 1.705-1.422l-.037-.749c-1.647.027-6.466.285-8.573.285l.015.786c2.175 0 1.937.587 3.166 3.213l6.045 15.172 1.682-.015 6.23-14.934c1.302-2.952 1.83-3.465 3.967-3.272"/><path d="M49.445 22.885c-.203-.003-.896-.115-1.195-.705-.3-.59-.309-1.631-.309-2.336l.01-2.965s1.238-.361 2.15.108c1.128.578 1.678 1.583 1.64 3.114-.043 1.963-.925 2.831-2.296 2.784zM47.9 11.99c0-.168 0-.742.041-.868.15-.382.845-.231 1.1-.166.861.204 2.044 1.346 2.11 2.75.036.845-.055 1.624-.886 2.187-.77.471-1.886.3-2.03.252l-.324-.23-.011-3.925zm3.607 4.363l.007-.11c1.05-.667 2.044-.973 2.02-2.677-.034-2.228-2.638-3.287-4.714-3.376a36.643 36.643 0 0 0-2.364-.05c-.958-.016-1.962.05-2.914.028l.04.572c.631 0 1.3-.16 1.514.563.183.556.265 2.14.265 2.802v5.798c0 .664.077 2.4-.195 2.764-.46.595-.99.657-1.624.657l.012.526c1.126-.127 2.3-.138 3.41-.163.873.025 1.721-.017 2.591 0 1.145 0 1.933-.125 2.966-.778 1.096-.699 1.698-1.597 1.777-3.006.06-1.191-.546-2.17-.893-2.5-.696-.668-1.171-.849-1.898-1.05zm37.538-3.725c-.657-.22-1.031-.406-1.614-.985a75.556 75.556 0 0 1-3.56-3.859c-.043-.062-.043-.187 0-.22 1.541-1.514 2.11-2.013 2.723-2.514.597-.5 1.18-.797 1.839-.922.328-.062.478-.219.478-.328 0-.156-.105-.297-.553-.297-.584 0-1.287.094-2.154.11h-.806c-.27 0-.374.187-.374.265 0 .173.15.297.433.36.509.109.569.282.448.438-.418.515-2.122 2.218-3.094 3.077-.18.172-.299.203-.358.203-.105 0-.15-.047-.166-.125-.044-.36.03-2.812.03-3.015 0-.25.12-.453.793-.625.12-.031.374-.172.374-.36 0-.171-.285-.25-.404-.25-.165 0-.897.031-1.615.031-.373 0-1.286-.078-1.494-.078-.225 0-.404.157-.404.282 0 .14.164.281.493.36.823.203.837.436.867.718.03.312.03.53.03 2.937 0 2.64-.03 3.25-.06 3.78-.045.657-.254.829-1.046 1.031-.254.063-.404.157-.404.345 0 .172.254.264.433.264.27 0 1.241-.092 1.944-.092.463 0 1.33.062 1.51.062.18 0 .404-.125.404-.282 0-.124-.09-.265-.509-.359-.552-.125-.837-.187-.897-.874-.06-.798-.045-2.266-.045-2.984 0-.172.06-.297.166-.297.06 0 .209.063.373.219.717.75 2.526 2.718 3.08 3.374.21.25.149.422-.21.53-.269.08-.388.204-.388.33 0 .14.15.28.358.28h.762c.569 0 1.914.109 2.617.109.27 0 .434-.187.434-.265 0-.187-.105-.265-.434-.374m9.959-9.077c-.493 0-.763.062-1.33.062-.524 0-.867-.031-1.196-.031-.27 0-.51.078-.51.266 0 .093.12.25.39.343.792.266.837.375.583 1.14-.33 1.016-1.48 3.922-2.064 5.36-.06.108-.134.077-.194 0-.3-.408-2.063-5.219-2.153-5.766-.074-.468.105-.594.494-.703.254-.078.433-.218.433-.344 0-.156-.164-.296-.449-.296-.403 0-.881.03-1.42.03-.553 0-1.15-.077-1.644-.077-.24 0-.479.109-.479.265 0 .141.136.266.404.36.793.265.882.39 1.077.797.27.578 2.093 5.39 2.392 6.217.284.782.553 1.734.628 1.969.06.187.194.328.298.328.18 0 .374-.22.45-.406.089-.203.358-1.142.686-1.984.972-2.469 1.959-4.844 2.408-5.75.328-.655.568-1 1.166-1.156.314-.078.523-.188.523-.36 0-.14-.164-.264-.493-.264m4.023 8.155c-.105-.5-.105-2.61-.06-2.922.045-.218.164-.36.195-.375.075-.031.477-.078.702-.078 1.271 0 2.392.625 2.392 2.093 0 .485-.15.922-.314 1.297-.15.313-.927.922-1.675.922-.268 0-1.12-.376-1.24-.937m-.045-7.25c.015-.156.075-.218.134-.25.06-.031.3-.078.479-.078 1.525 0 2.108.891 2.108 1.828 0 .985-.523 1.437-.673 1.531-.209.11-.867.25-1.644.25-.195 0-.39-.062-.404-.156-.06-.313-.044-2.079 0-3.125m2.975 8.437c.867-.344 1.839-1.094 1.839-2.625 0-1.171-.882-2.03-1.944-2.374-.074-.032-.12-.188-.089-.203.3-.126.732-.407.852-.564.284-.312.464-.717.464-1.296a2.2 2.2 0 0 0-.808-1.703c-.389-.328-1.121-.625-2.213-.625-1.001 0-1.928.11-2.466.11h-.762c-.375 0-.584.094-.584.25 0 .187.21.312.374.328.822.109.956.25 1.002.781.045.468.03 1.921.03 2.766 0 3.436-.03 3.499-.06 3.78-.075.844-.389.875-.987 1.016-.389.093-.568.171-.568.405 0 .173.284.267.493.267.284 0 .553-.048 1.062-.033.598.016 1.39.078 2.332.078.657 0 1.42-.108 2.033-.358m18.87-.265c-.658-.22-1.032-.406-1.615-.985a75.28 75.28 0 0 1-3.56-3.859c-.043-.062-.043-.187 0-.22 1.541-1.514 2.109-2.013 2.723-2.514.597-.5 1.18-.797 1.839-.922.328-.062.478-.219.478-.328 0-.156-.105-.297-.553-.297-.583 0-1.286.094-2.153.11h-.807c-.27 0-.374.187-.374.265 0 .173.15.297.433.36.509.109.569.282.448.438-.418.515-2.122 2.218-3.094 3.077-.18.172-.299.203-.358.203-.105 0-.15-.047-.165-.125-.045-.36.03-2.812.03-3.015 0-.25.12-.453.792-.625.12-.031.374-.172.374-.36 0-.171-.285-.25-.404-.25-.164 0-.897.031-1.615.031-.373 0-1.285-.078-1.494-.078-.225 0-.405.157-.405.282 0 .14.165.281.494.36.823.203.838.436.867.718.03.312.03.53.03 2.937 0 2.64-.03 3.25-.06 3.78-.045.657-.254.829-1.046 1.031-.254.063-.404.157-.404.345 0 .172.254.264.433.264.27 0 1.242-.092 1.944-.092.464 0 1.33.062 1.51.062.18 0 .404-.125.404-.282 0-.124-.09-.265-.508-.359-.553-.125-.838-.187-.898-.874-.06-.798-.044-2.266-.044-2.984 0-.172.06-.297.165-.297.06 0 .208.063.373.219.718.75 2.527 2.718 3.08 3.374.21.25.149.422-.21.53-.269.08-.388.204-.388.33 0 .14.15.28.359.28h.762c.568 0 1.913.109 2.617.109.268 0 .433-.187.433-.265 0-.187-.105-.265-.433-.374m5.099-.297c.06-.048.135.046.135.062.015.203.03.609.045.719.014.11.104.265.164.265.134 0 .404-.047.643-.11.268-.078.852-.171 1.226-.218.09-.015.254-.156.254-.421 0-.063-.09-.266-.12-.266-.15.015-.657.093-.762.093-.03 0-.224-.046-.239-.593-.03-.687-.016-4.047-.016-4.718 0-.172-.104-.376-.163-.376-.106 0-.823.047-1.062.047-.255.015-.464 0-.718 0-.194 0-.374.157-.374.25 0 .141.15.266.359.344.18.062.344.14.493.203.105.03.225.313.225.484 0 .75 0 2.656-.06 3.172a1.105 1.105 0 0 1-.404.735c-.15.109-.643.343-1.091.343-.194 0-.553-.047-.793-.203-.194-.188-.358-.36-.373-1.203-.015-1.094-.015-3.031-.015-3.702 0-.33-.045-.5-.15-.5s-1.15.077-1.48.077c-.06 0-.463.048-.463.266 0 .157.15.266.314.36.434.234.568.546.568.687v3.78c0 .375.194.75.344.907.21.25.702.531 1.18.531.928 0 1.616-.469 2.333-1.015m9.659.187c-.27-.141-.374-.28-.39-.735-.029-.703-.029-1.577-.044-2.343-.015-1.078-.209-1.718-.448-2.077-.224-.344-.614-.735-1.376-.735-.942 0-1.659.469-2.123.796-.045.032-.12.032-.104-.046.014-.156.03-.61.03-.687 0-.125-.21-.188-.254-.188-.03 0-.21.063-.39.157-.299.155-.687.296-.971.437-.134.063-.27.281-.27.39 0 .032.03.094.21.235.374.234.523.406.523.656 0 1.593-.044 2.765-.09 3.515-.014.344-.104.531-.762.75-.15.047-.329.172-.329.328 0 .157.165.234.434.234.238 0 .717-.047 1.18-.047.36 0 .808.047 1.302.047.269 0 .418-.125.418-.25 0-.124-.12-.265-.389-.375-.597-.234-.583-.421-.583-.657V8.3c0-.188.15-.36.18-.39.284-.204.717-.345 1.285-.345.614 0 .913.219 1.062.423.149.202.284.671.284 1.843 0 .687 0 1.359-.015 2.125-.015.39-.12.53-.493.672-.254.11-.33.234-.33.327 0 .203.21.25.405.25.179 0 .508-.047.942-.047.448 0 .926.047 1.12.047.195 0 .434-.094.434-.25 0-.14-.104-.296-.448-.437m4.113.14c-.718-.28-.763-.296-.808-.937-.03-.374-.03-2.874-.03-3.812 0-1.453.045-3.437.045-4.671 0-.438-.06-.672-.18-.672-.044 0-.164.015-.313.062a15.22 15.22 0 0 0-1.346.5c-.104.048-.284.156-.284.282 0 .125.06.218.359.343.254.11.449.234.479.422.044.25.044 1.687.044 3.797 0 2.687-.03 3.655-.06 3.906-.045.312-.06.515-.748.78-.269.094-.373.22-.373.376 0 .14.195.187.434.187.344 0 .658-.062 1.24-.062.389 0 1.003.047 1.42.047.33 0 .434-.094.434-.22 0-.093-.075-.234-.313-.327m7.64.39c.089-.015.254-.156.254-.422 0-.062-.09-.265-.12-.265-.15.015-.658.093-.763.093-.03 0-.224-.046-.238-.593-.03-.688-.015-4.046-.015-4.718 0-.173-.105-.376-.165-.376-.105 0-.823.047-1.062.047-.254.016-.463 0-.717 0-.195 0-.374.156-.374.25 0 .141.15.266.359.344.179.062.344.14.493.204.104.03.225.312.225.483 0 .75 0 2.657-.06 3.172a1.099 1.099 0 0 1-.405.734c-.15.11-.643.344-1.09.344-.195 0-.554-.047-.793-.203-.194-.187-.358-.36-.374-1.204-.015-1.093-.015-3.03-.015-3.701 0-.33-.044-.5-.15-.5-.104 0-1.15.077-1.48.077-.06 0-.463.047-.463.266 0 .157.15.266.314.36.434.234.568.546.568.687v3.78c0 .376.195.75.345.907.209.25.702.532 1.18.532.928 0 1.615-.47 2.333-1.016.06-.047.134.046.134.062.015.203.03.61.045.719.015.109.105.265.164.265.135 0 .404-.047.643-.11.27-.077.853-.171 1.226-.217m1.093.156c.239 0 .717-.048 1.18-.048.36 0 .808.048 1.301.048.27 0 .42-.126.42-.25 0-.126-.12-.266-.39-.376-.598-.234-.583-.421-.583-.657V8.3c0-.187.15-.359.18-.39.284-.203.717-.344 1.285-.344.614 0 .913.219 1.062.422.15.203.284.672.284 1.843 0 .688 0 1.36-.015 2.126-.016.39-.12.53-.493.671-.254.11-.33.234-.33.328 0 .203.21.25.405.25.178 0 .508-.047.942-.047.448 0 .926.048 1.12.048.195 0 .434-.094.434-.25 0-.141-.105-.298-.448-.438-.27-.14-.375-.281-.389-.734-.03-.703-.03-1.578-.045-2.344-.015-1.078-.21-1.718-.448-2.078-.224-.343-.614-.734-1.376-.734-.942 0-1.66.468-2.123.797-.045.031-.12.031-.104-.047.014-.156.03-.61.03-.688 0-.124-.21-.187-.254-.187-.03 0-.21.063-.39.156-.3.156-.688.297-.971.437-.135.063-.27.282-.27.39 0 .033.03.095.21.236.374.234.523.406.523.656a60.22 60.22 0 0 1-.09 3.515c-.014.344-.104.53-.762.75-.15.047-.33.172-.33.328 0 .156.166.235.435.235M87.793 29.284h-1.61c-.485 0-.573-.08-.573-.472V27.66c1.136-.369 2.393-.864 3.308-1.44l-.827-.772c-.584.45-1.532.922-2.48 1.279V25.01h-1.037v3.813c0 1.117.298 1.44 1.488 1.44h1.797c1.004 0 1.29-.427 1.423-1.97-.287-.081-.717-.242-.949-.415-.055 1.197-.11 1.405-.54 1.405m-6.437-7.223h5.677v-.876h-5.677v.876zm0 1.728h5.677v-.91h-5.677v.91zm-1.037.852h7.793v-4.32H80.32v4.32zm1.213 4.39v-1.902h2.502v-.967h-2.502v-1.117h-1.07v3.629c0 .45-.341.633-.584.725.165.22.32.692.375.957.298-.15.75-.254 4.023-.784a5.505 5.505 0 0 1-.11-.92l-2.634.378zm23.268-1.81h1.257v-1.347H104.8v1.348zm2.206 0h1.289v-1.347h-1.29v1.348zm2.237 0h1.312v-1.347h-1.312v1.348zm-5.445 3.308h1.002v-2.397h1.258v2.293h.948v-2.293h1.289v2.293h.948v-2.293h1.312v1.302c0 .115-.033.138-.143.138a6.87 6.87 0 0 1-.739 0c.132.265.265.668.287.944.573 0 .97-.01 1.256-.183.277-.15.342-.427.342-.888v-4.48h-7.76v5.564zm6.107-7.442h-4.167a15.344 15.344 0 0 0 1.962-1.832 25.51 25.51 0 0 0 2.205 1.832m-1.39-2.835l-.77-.448c-1.191 1.647-3.286 3.133-5.193 3.986.265.252.53.633.694.91.673-.346 1.367-.796 2.04-1.279v.599h4.718v-.864c.738.54 1.444.99 2.15 1.405.154-.311.452-.68.717-.898-1.478-.749-3.055-1.729-4.576-3.11.078-.093.143-.197.22-.3m20.537 5.518h1.036v-.991h-1.036v.991zm-.684.61h2.436v-2.212h-2.436v2.212z"/><path d="M133.45 27.752c-.286-.058-.53-.368-.716-.865a8.908 8.908 0 0 0 1.179-2.729l-.816-.173a7.781 7.781 0 0 1-.683 1.831 21.401 21.401 0 0 1-.32-2.257h2.183v-.795h-.672l.484-.53c-.242-.253-.727-.565-1.124-.76l-.474.494c.397.209.871.53 1.092.796h-1.555a34.306 34.306 0 0 1-.055-1.106h-.849l.066 1.106h-3.164v.795h3.23c.11 1.221.276 2.338.54 3.214a5.058 5.058 0 0 1-.661.726l-.022-.715c-1.19.197-2.392.392-3.197.507l.11.807c.882-.162 1.996-.38 3.076-.566a6.45 6.45 0 0 1-.849.623c.165.15.463.496.573.657a6.721 6.721 0 0 0 1.312-1.152c.265.507.596.84 1.003.956.64.265 1.103-.185 1.257-1.498a3.726 3.726 0 0 1-.65-.507c-.066.715-.165 1.187-.298 1.141"/><path d="M127.52 29.077h7.209v-7.66h-7.21v7.66zm-.97 1.474h.97v-.507h7.209v.507h1.014V20.448h-9.194v10.103zm31.26-7.5a7.48 7.48 0 0 1-.561-1.404h1.278a7.6 7.6 0 0 1-.716 1.405zm-2.953 1.407c.639-.841 1.168-1.89 1.477-3.158.298 1.233.716 2.317 1.322 3.158h-2.8zm4.21-3.606l-.165.058h-1.852c-.055-.242-.11-.496-.155-.75l-.771.15c.033.208.077.403.11.6l-.341-.139-.133.035h-1.014c.088-.22.176-.438.243-.67l-.761-.184c-.342 1.165-.948 2.248-1.72 2.95.199.127.507.403.64.542.485-.508.937-1.187 1.311-1.947h1.026c-.089.3-.198.587-.32.875-.21-.15-.441-.3-.65-.415l-.342.484c.231.139.507.323.728.508-.122.218-.243.448-.386.645a7.682 7.682 0 0 0-.728-.542l-.397.45c.243.172.518.391.75.598-.375.461-.805.83-1.246 1.083.188.161.397.45.518.646a6.327 6.327 0 0 0 1.18-1.05v.542h3.417v-.414a4.8 4.8 0 0 0 1.168.967c.133-.254.386-.599.574-.772-.596-.299-1.08-.748-1.489-1.301.53-.68 1.048-1.659 1.378-2.593l-.573-.356zm0 5.402h-5.523v.875h2.26v2.305c0 .116-.022.15-.165.161-.133.012-.53.012-.992-.01.121.252.264.644.309.92.628 0 1.091-.01 1.4-.162.319-.148.396-.414.396-.886V27.13h2.316v-.875z"/><path d="M157.535 28.005c.44.61 1.014 1.474 1.279 1.983l.805-.51c-.298-.493-.894-1.311-1.324-1.922l-.76.45zm-3.56-.38c-.298.634-.739 1.36-1.169 1.867.231.115.595.355.772.518.408-.541.914-1.383 1.267-2.096l-.87-.289zm-1.842-3.87c.32-.911.684-2.051.981-2.996l-.661-.39-.143.034h-2.348v10.08h.882v-9.114h1.135a41.599 41.599 0 0 1-.717 2.49c.684.864.827 1.635.827 2.211 0 .345-.043.634-.198.749a.532.532 0 0 1-.298.104c-.154.011-.33 0-.54-.013.132.254.21.67.22.923.243.011.508.011.695-.012.231-.046.42-.114.574-.23.308-.242.44-.737.44-1.417 0-.668-.165-1.498-.849-2.42"/></g></svg>